<svg xmlns="http://www.w3.org/2000/svg" viewBox="0 0 42.69 35.91"><defs><style>.cls-1{fill:#262424;}</style></defs><title>anatel</title><g id="Camada_2" data-name="Camada 2"><g id="Camada_1-2" data-name="Camada 1"><path class="cls-1" d="M38.91,5.61C34.55.33,26.62-1.23,15.35,1a4.12,4.12,0,0,0-2.12,7,4.07,4.07,0,0,0,2.92,1.18c2.25,0,5.2.43,6.56,2.78,1.52,2.64,1.64,8.64-6.46,22.21a1.19,1.19,0,0,0,1,1.8H38.15a1.19,1.19,0,0,0,1.1-.74,55.32,55.32,0,0,0,2.91-10.91C43.45,16.07,42.36,9.79,38.91,5.61ZM37.32,33.54h-18c6.14-10.74,8-18.41,5.43-22.82-1.53-2.65-4.51-4-8.65-4a1.82,1.82,0,0,1-1.22-.49A1.74,1.74,0,0,1,14.38,5,1.76,1.76,0,0,1,15.81,3.3c10.35-2,17.5-.73,21.27,3.83C43.47,14.87,38.59,30,37.32,33.54Z"/><path class="cls-1" d="M9.38,13.26a9.38,9.38,0,1,0,9.38,9.38A9.39,9.39,0,0,0,9.38,13.26Zm0,16.39a7,7,0,1,1,7-7A7,7,0,0,1,9.38,29.64Z"/></g></g></svg>