<svg xmlns="http://www.w3.org/2000/svg" viewBox="0 0 47.64 30.61"><defs><style>.cls-1{fill:#262424;}</style></defs><title>cloud-transfer</title><g id="Camada_2" data-name="Camada 2"><g id="Camada_1-2" data-name="Camada 1"><path class="cls-1" d="M43.84,17.21l-.92-.56a9.7,9.7,0,0,0-4.87-7.9C35.94,2.85,31.14-.39,25.11,0a13.09,13.09,0,0,0-7.67,2.82A11.9,11.9,0,0,0,8.31,5.06a13.57,13.57,0,0,0-4.52,8.37A10.36,10.36,0,0,0,.39,24.1a10,10,0,0,0,9.46,6.51H40.62a7,7,0,0,0,7-6.41q0-.25,0-.51A7.74,7.74,0,0,0,43.84,17.21ZM40.62,28H9.85a7.43,7.43,0,0,1-7-4.8c-.72-2,.16-6.25,2.87-8a1.29,1.29,0,0,0,.6-1s.39-4.6,3.63-7.18C11.85,5.55,14.47,5,17.68,5.5a1.31,1.31,0,0,0,1.16-.42c.08-.09,2-2.14,6.45-2.46,2.37-.17,8.14.22,10.47,7.44a1.29,1.29,0,0,0,.72.79,7.17,7.17,0,0,1,3.88,6.59,1.29,1.29,0,0,0,.88,1.22l1.29.79a5.11,5.11,0,0,1,2.51,4v.09A4.4,4.4,0,0,1,40.62,28Z"/><path class="cls-1" d="M20.16,14.73a1.29,1.29,0,0,0-1.29-1.29H9A1.29,1.29,0,0,0,9,16h9.91A1.29,1.29,0,0,0,20.16,14.73Z"/><path class="cls-1" d="M24.84,13.94,21.31,9.36a1.29,1.29,0,1,0-2,1.58l2.93,3.79-2.93,3.79a1.29,1.29,0,1,0,2,1.58l3.53-4.58A1.29,1.29,0,0,0,24.84,13.94Z"/><path class="cls-1" d="M39.75,19.67H29.85a1.29,1.29,0,0,0,0,2.58h9.91a1.29,1.29,0,1,0,0-2.58Z"/><path class="cls-1" d="M26.53,21l2.93-3.79a1.29,1.29,0,1,0-2-1.58l-3.53,4.58a1.29,1.29,0,0,0,0,1.58l3.53,4.58a1.29,1.29,0,1,0,2-1.58Z"/></g></g></svg>