<svg xmlns="http://www.w3.org/2000/svg" viewBox="0 0 67.82 41.68"><defs><style>.cls-1{fill:#262424;}</style></defs><title>cloud-link</title><g id="Camada_2" data-name="Camada 2"><g id="Camada_1-2" data-name="Camada 1"><path class="cls-1" d="M23.66,12c0-.09,0-.18,0-.27a4.21,4.21,0,0,0-2.05-3.52l-.22-.13A5.09,5.09,0,0,0,19,4.32,6.34,6.34,0,0,0,12.41,0,6.87,6.87,0,0,0,8.64,1.34a6.07,6.07,0,0,0-4.5,1.18,6.88,6.88,0,0,0-2.3,4.1A5.43,5.43,0,0,0,.21,12.14a5.27,5.27,0,0,0,5,3.44H19.81A3.8,3.8,0,0,0,23.66,12ZM21,12.82a1.63,1.63,0,0,1-1.17.5H5.2a3,3,0,0,1-2.85-1.94A3.21,3.21,0,0,1,3.49,8.2,1.13,1.13,0,0,0,4,7.34,4.82,4.82,0,0,1,5.55,4.29a3.63,3.63,0,0,1,2.33-.72,6.47,6.47,0,0,1,1,.08,1.14,1.14,0,0,0,1-.37,4.14,4.14,0,0,1,2.72-1A4.11,4.11,0,0,1,17,5.45a1.12,1.12,0,0,0,.62.69A2.88,2.88,0,0,1,19.18,8.8a1.13,1.13,0,0,0,.71,1l.57.35a1.91,1.91,0,0,1,.95,1.53A1.49,1.49,0,0,1,21,12.82Z"/><path class="cls-1" d="M43.06,34.36l-.22-.13a5.09,5.09,0,0,0-2.38-3.8,6.34,6.34,0,0,0-6.61-4.3,6.87,6.87,0,0,0-3.77,1.32,6.07,6.07,0,0,0-4.5,1.18,6.88,6.88,0,0,0-2.3,4.1,5.43,5.43,0,0,0-1.62,5.52,5.27,5.27,0,0,0,5,3.44H41.26a3.8,3.8,0,0,0,3.84-3.53c0-.09,0-.18,0-.27A4.21,4.21,0,0,0,43.06,34.36Zm-.63,4.57a1.63,1.63,0,0,1-1.17.5H26.64a3,3,0,0,1-2.85-1.94,3.21,3.21,0,0,1,1.15-3.18,1.13,1.13,0,0,0,.52-.86A4.82,4.82,0,0,1,27,30.39a3.63,3.63,0,0,1,2.33-.72,6.47,6.47,0,0,1,1,.08,1.14,1.14,0,0,0,1-.37,4.14,4.14,0,0,1,2.72-1,4.11,4.11,0,0,1,4.45,3.18,1.12,1.12,0,0,0,.62.69,2.88,2.88,0,0,1,1.54,2.66,1.13,1.13,0,0,0,.71,1l.57.35a1.91,1.91,0,0,1,.95,1.53A1.49,1.49,0,0,1,42.42,38.93Z"/><path class="cls-1" d="M65.76,8.25l-.22-.13a5.09,5.09,0,0,0-2.38-3.8A6.34,6.34,0,0,0,56.56,0a6.87,6.87,0,0,0-3.77,1.32,6.07,6.07,0,0,0-4.5,1.18A6.88,6.88,0,0,0,46,6.62a5.43,5.43,0,0,0-1.62,5.52,5.27,5.27,0,0,0,5,3.44H64A3.8,3.8,0,0,0,67.81,12c0-.09,0-.18,0-.27A4.21,4.21,0,0,0,65.76,8.25Zm-.63,4.57a1.63,1.63,0,0,1-1.17.5H49.35a3,3,0,0,1-2.85-1.94A3.21,3.21,0,0,1,47.65,8.2a1.13,1.13,0,0,0,.52-.86A4.82,4.82,0,0,1,49.7,4.29,3.63,3.63,0,0,1,52,3.56a6.47,6.47,0,0,1,1,.08,1.14,1.14,0,0,0,1-.37,4.53,4.53,0,0,1,7.16,2.18,1.12,1.12,0,0,0,.62.69A2.88,2.88,0,0,1,63.33,8.8a1.13,1.13,0,0,0,.71,1l.57.35a1.91,1.91,0,0,1,.95,1.53A1.49,1.49,0,0,1,65.13,12.82Z"/><path class="cls-1" d="M16.78,19a1.55,1.55,0,0,0-1.55,1.55v3.11h-3.4a1.55,1.55,0,1,0,0,3.1h4.94a1.55,1.55,0,0,0,1.55-1.55V20.54A1.55,1.55,0,0,0,16.78,19Z"/><path class="cls-1" d="M54.3,23.8H51.19V20.4a1.55,1.55,0,1,0-3.1,0v4.94a1.55,1.55,0,0,0,1.55,1.55H54.3a1.55,1.55,0,1,0,0-3.1Z"/><path class="cls-1" d="M31.07,13.95a1.55,1.55,0,0,0,2.19,0l3.5-3.5a1.55,1.55,0,0,0,0-2.19L33.45,5a1.55,1.55,0,1,0-2.19,2.19l2.2,2.2-2.4,2.4A1.55,1.55,0,0,0,31.07,13.95Z"/></g></g></svg>