<svg xmlns="http://www.w3.org/2000/svg" viewBox="0 0 33.61 40.19"><defs><style>.cls-1{fill:#262424;}</style></defs><title>colocation</title><g id="Camada_2" data-name="Camada 2"><g id="Camada_1-2" data-name="Camada 1"><path class="cls-1" d="M27.23,0H6.38A6.39,6.39,0,0,0,0,6.38V27.23a6.39,6.39,0,0,0,6.38,6.38h9.5v3.07h-2.4a.89.89,0,0,0-.89.89v1.74a.89.89,0,0,0,.89.89h6.61a.89.89,0,0,0,.89-.89V37.57a.89.89,0,0,0-.89-.89h-2.4V33.61h9.54a6.39,6.39,0,0,0,6.38-6.38V6.38A6.39,6.39,0,0,0,27.23,0Zm0,31.81H6.38A4.58,4.58,0,0,1,1.8,27.23v-15H25a.9.9,0,1,0,0-1.8H1.8V6.38A4.58,4.58,0,0,1,6.38,1.8H27.23a4.58,4.58,0,0,1,4.58,4.58V21.06H6a.9.9,0,0,0,0,1.8H31.81v4.37A4.58,4.58,0,0,1,27.23,31.81Z"/><circle class="cls-1" cx="5.79" cy="6.58" r="1.37"/><circle class="cls-1" cx="11.76" cy="6.58" r="1.37"/><circle class="cls-1" cx="18.17" cy="6.58" r="1.37"/><path class="cls-1" d="M28.57,6.06a3.16,3.16,0,1,0-3.16,3.16A3.17,3.17,0,0,0,28.57,6.06Z"/><circle class="cls-1" cx="5.79" cy="17.18" r="1.37"/><circle class="cls-1" cx="11.76" cy="17.18" r="1.37"/><circle class="cls-1" cx="18.17" cy="17.18" r="1.37"/><path class="cls-1" d="M28.57,16.67a3.16,3.16,0,1,0-3.16,3.16A3.17,3.17,0,0,0,28.57,16.67Z"/><circle class="cls-1" cx="5.79" cy="27.49" r="1.37"/><circle class="cls-1" cx="11.76" cy="27.49" r="1.37"/><circle class="cls-1" cx="18.17" cy="27.49" r="1.37"/><path class="cls-1" d="M28.57,27a3.16,3.16,0,1,0-3.16,3.16A3.17,3.17,0,0,0,28.57,27Z"/><path class="cls-1" d="M10.94,37.49H1.8a.9.9,0,0,0,0,1.8h9.13a.9.9,0,0,0,0-1.8Z"/><path class="cls-1" d="M31.72,37.49H22.59a.9.9,0,0,0,0,1.8h9.13a.9.9,0,0,0,0-1.8Z"/></g></g></svg>