<svg xmlns="http://www.w3.org/2000/svg" viewBox="0 0 67.47 42.12"><defs><style>.combo-house-1{fill:#ea0000;}</style></defs><title>combos-house</title><g id="Camada_2" data-name="Camada 2"><g id="Camada_1-2" data-name="Camada 1"><path class="combo-house-1" d="M55,16.85,34.27,5.41a1.09,1.09,0,0,0-.47-.13h-.17a1.09,1.09,0,0,0-.47.13L12.39,16.85a6.41,6.41,0,0,0-3.32,5.62V35.71a6.42,6.42,0,0,0,6.41,6.41H51.95a6.42,6.42,0,0,0,6.41-6.41V22.47A6.41,6.41,0,0,0,55,16.85Zm1.11,18.85a4.21,4.21,0,0,1-4.21,4.21H15.48a4.21,4.21,0,0,1-4.21-4.21V22.47a4.21,4.21,0,0,1,2.18-3.68L33.71,7.63,54,18.78a4.21,4.21,0,0,1,2.18,3.68Z"/><path class="combo-house-1" d="M66.91,18.77,34.28.14h0l-.11,0L34,0l-.11,0-.1,0h-.21l-.11,0-.1,0-.1,0-.1,0h0L.56,18.77a1.1,1.1,0,1,0,1.09,1.92L33.73,2.37,65.82,20.69a1.1,1.1,0,0,0,1.09-1.92Z"/></g></g></svg>