<svg xmlns="http://www.w3.org/2000/svg" viewBox="0 0 56.28 76.64"><defs><style>.combo-building-1{fill:#0f5d99;}</style></defs><title>combos-building</title><g id="Camada_2" data-name="Camada 2"><g id="Camada_1-2" data-name="Camada 1"><path class="combo-building-1" d="M34.68,76.64H5.88A5.89,5.89,0,0,1,0,70.76V5.88A5.89,5.89,0,0,1,5.88,0H34.68a5.89,5.89,0,0,1,5.88,5.88V70.76A5.89,5.89,0,0,1,34.68,76.64ZM5.88,2A3.93,3.93,0,0,0,2,5.88V70.76a3.93,3.93,0,0,0,3.92,3.92H34.68a3.93,3.93,0,0,0,3.92-3.92V5.88A3.93,3.93,0,0,0,34.68,2Z"/><path class="combo-building-1" d="M55.3,76.26a1,1,0,0,1-1-1V29.4a3.93,3.93,0,0,0-3.92-3.92H44.27a1,1,0,0,1,0-2H50.4a5.89,5.89,0,0,1,5.88,5.88V75.28A1,1,0,0,1,55.3,76.26Z"/><path class="combo-building-1" d="M15,34.12H9.9A3.93,3.93,0,0,1,6,30.2V25.13A3.93,3.93,0,0,1,9.9,21.21H15a3.93,3.93,0,0,1,3.92,3.92V30.2A3.93,3.93,0,0,1,15,34.12ZM9.9,23.17a2,2,0,0,0-2,2V30.2a2,2,0,0,0,2,2H15a2,2,0,0,0,2-2V25.13a2,2,0,0,0-2-2Z"/><path class="combo-building-1" d="M31.29,34.49H26.22a3.93,3.93,0,0,1-3.92-3.92V25.5a3.93,3.93,0,0,1,3.92-3.92h5.07a3.93,3.93,0,0,1,3.92,3.92v5.07A3.93,3.93,0,0,1,31.29,34.49ZM26.22,23.54a2,2,0,0,0-2,2v5.07a2,2,0,0,0,2,2h5.07a2,2,0,0,0,2-2V25.5a2,2,0,0,0-2-2Z"/><path class="combo-building-1" d="M15,18H9.9A3.93,3.93,0,0,1,6,14.09V9A3.93,3.93,0,0,1,9.9,5.1H15A3.93,3.93,0,0,1,18.88,9v5.07A3.93,3.93,0,0,1,15,18ZM9.9,7.06a2,2,0,0,0-2,2v5.07a2,2,0,0,0,2,2H15a2,2,0,0,0,2-2V9a2,2,0,0,0-2-2Z"/><path class="combo-building-1" d="M31.29,18.38H26.22a3.93,3.93,0,0,1-3.92-3.92V9.39a3.93,3.93,0,0,1,3.92-3.92h5.07a3.93,3.93,0,0,1,3.92,3.92v5.07A3.93,3.93,0,0,1,31.29,18.38ZM26.22,7.43a2,2,0,0,0-2,2v5.07a2,2,0,0,0,2,2h5.07a2,2,0,0,0,2-2V9.39a2,2,0,0,0-2-2Z"/><path class="combo-building-1" d="M15,65.37H9.9A3.93,3.93,0,0,1,6,61.44V56.38A3.93,3.93,0,0,1,9.9,52.46H15a3.93,3.93,0,0,1,3.92,3.92v5.07A3.93,3.93,0,0,1,15,65.37ZM9.9,54.42a2,2,0,0,0-2,2v5.07a2,2,0,0,0,2,2H15a2,2,0,0,0,2-2V56.38a2,2,0,0,0-2-2Z"/><path class="combo-building-1" d="M31.29,65.74H26.22a3.93,3.93,0,0,1-3.92-3.92V56.75a3.93,3.93,0,0,1,3.92-3.92h5.07a3.93,3.93,0,0,1,3.92,3.92v5.07A3.93,3.93,0,0,1,31.29,65.74ZM26.22,54.79a2,2,0,0,0-2,2v5.07a2,2,0,0,0,2,2h5.07a2,2,0,0,0,2-2V56.75a2,2,0,0,0-2-2Z"/><path class="combo-building-1" d="M15,49.75H9.9A3.93,3.93,0,0,1,6,45.82V40.76A3.93,3.93,0,0,1,9.9,36.84H15a3.93,3.93,0,0,1,3.92,3.92v5.07A3.93,3.93,0,0,1,15,49.75ZM9.9,38.8a2,2,0,0,0-2,2v5.07a2,2,0,0,0,2,2H15a2,2,0,0,0,2-2V40.76a2,2,0,0,0-2-2Z"/><path class="combo-building-1" d="M31.29,50.12H26.22A3.93,3.93,0,0,1,22.3,46.2V41.13a3.93,3.93,0,0,1,3.92-3.92h5.07a3.93,3.93,0,0,1,3.92,3.92V46.2A3.93,3.93,0,0,1,31.29,50.12ZM26.22,39.17a2,2,0,0,0-2,2V46.2a2,2,0,0,0,2,2h5.07a2,2,0,0,0,2-2V41.13a2,2,0,0,0-2-2Z"/><path class="combo-building-1" d="M47.95,29h-4a1,1,0,0,0-1,1h0a1,1,0,0,0,1,1h4a2,2,0,0,1,2,2V38a2,2,0,0,1-2,2h-4a1,1,0,0,0-1,1h0a1,1,0,0,0,1,1h4A3.92,3.92,0,0,0,51.87,38V33A3.92,3.92,0,0,0,47.95,29Z"/><path class="combo-building-1" d="M47.95,60.28h-4a1,1,0,0,0-1,1h0a1,1,0,0,0,1,1h4a2,2,0,0,1,2,2v5.07a2,2,0,0,1-2,2h-4a1,1,0,0,0-1,1h0a1,1,0,0,0,1,1h4a3.92,3.92,0,0,0,3.92-3.92V64.2A3.92,3.92,0,0,0,47.95,60.28Z"/><path class="combo-building-1" d="M47.95,44.66h-4a1,1,0,0,0-1,1h0a1,1,0,0,0,1,1h4a2,2,0,0,1,2,2v5.07a2,2,0,0,1-2,2h-4a1,1,0,0,0-1,1h0a1,1,0,0,0,1,1h4a3.92,3.92,0,0,0,3.92-3.92V48.58A3.92,3.92,0,0,0,47.95,44.66Z"/></g></g></svg>