<svg xmlns="http://www.w3.org/2000/svg" viewBox="0 0 54.11 54.24"><defs><style>.combo-phone-1{fill:#f5a623;}</style></defs><title>combos-phone</title><g id="Camada_2" data-name="Camada 2"><g id="Camada_1-2" data-name="Camada 1"><path class="combo-phone-1" d="M52.59,38.72a5.2,5.2,0,0,0-1.42-1L38,31.36a1.21,1.21,0,0,0-1.4.25l-4.31,4.48a.74.74,0,0,1-.53.23h-.53a.73.73,0,0,1-.28-.05l-.12,0A23.12,23.12,0,0,1,18,23.3l-.16-.4a.73.73,0,0,1,.16-.79l4.57-4.58a1.24,1.24,0,0,0,.26-1.4L16.5,2.95A5.2,5.2,0,0,0,8.13,1.53L5.65,4A19.46,19.46,0,0,0,1.22,24.49,48.64,48.64,0,0,0,29.72,53a19.2,19.2,0,0,0,13,.18c2.34-.82,7.51-5,9.92-7.13A5.23,5.23,0,0,0,52.59,38.72Zm-1.13,4.89h0a2.83,2.83,0,0,1-.52.74l-2.5,2.5a17,17,0,0,1-12,5,16.77,16.77,0,0,1-5.9-1.07A46.2,46.2,0,0,1,3.49,23.61,17,17,0,0,1,7.36,5.74L9.84,3.25a2.7,2.7,0,0,1,1.94-.82h.42A2.73,2.73,0,0,1,14.34,4l5.74,11.91a.74.74,0,0,1-.14.84l-3.46,3.47a3.46,3.46,0,0,0-.74,3.72A25.6,25.6,0,0,0,30,38.44l.27.1a3.53,3.53,0,0,0,3.89-.83l3.26-3.4a.73.73,0,0,1,.85-.15L50.17,39.9A2.78,2.78,0,0,1,51.46,43.61Z"/></g></g></svg>