<svg xmlns="http://www.w3.org/2000/svg" viewBox="0 0 69.04 82.57"><defs><style>.cls-1{fill:#262424;}</style></defs><title>conect</title><g id="Camada_2" data-name="Camada 2"><g id="Camada_1-2" data-name="Camada 1"><path class="cls-1" d="M55.93,0H13.11A13.13,13.13,0,0,0,0,13.11V55.93A13.13,13.13,0,0,0,13.11,69H32.62v6.31H27.68a1.82,1.82,0,0,0-1.82,1.82v3.58a1.82,1.82,0,0,0,1.82,1.82H41.26a1.82,1.82,0,0,0,1.82-1.82V77.17a1.82,1.82,0,0,0-1.82-1.82H36.32V69H55.93A13.13,13.13,0,0,0,69,55.93V13.11A13.13,13.13,0,0,0,55.93,0Zm0,65.34H13.11A9.41,9.41,0,0,1,3.7,55.93V25.14H51.46a1.85,1.85,0,0,0,0-3.7H3.7V13.11A9.41,9.41,0,0,1,13.11,3.7H55.93a9.41,9.41,0,0,1,9.41,9.41V43.26H12.23a1.85,1.85,0,1,0,0,3.7H65.34v9A9.41,9.41,0,0,1,55.93,65.34Z"/><circle class="cls-1" cx="13" cy="34.09" r="1.7"/><circle class="cls-1" cx="21.03" cy="34.09" r="1.7"/><circle class="cls-1" cx="28.48" cy="34.09" r="1.7"/><path class="cls-1" d="M45.7,41.7a7.61,7.61,0,1,0-7.61-7.61A7.62,7.62,0,0,0,45.7,41.7Zm0-11.52a3.91,3.91,0,1,1-3.91,3.91A3.91,3.91,0,0,1,45.7,30.18Z"/><circle class="cls-1" cx="16.14" cy="56.35" r="1.7"/><circle class="cls-1" cx="24.17" cy="56.35" r="1.7"/><circle class="cls-1" cx="31.62" cy="56.35" r="1.7"/><path class="cls-1" d="M48.84,48.74a7.61,7.61,0,1,0,7.61,7.61A7.62,7.62,0,0,0,48.84,48.74Zm0,11.52a3.91,3.91,0,1,1,3.91-3.91A3.91,3.91,0,0,1,48.84,60.26Z"/><circle class="cls-1" cx="16.14" cy="12.41" r="1.7"/><circle class="cls-1" cx="24.17" cy="12.41" r="1.7"/><circle class="cls-1" cx="31.62" cy="12.41" r="1.7"/><path class="cls-1" d="M56.45,12.41A7.61,7.61,0,1,0,48.84,20,7.62,7.62,0,0,0,56.45,12.41Zm-7.61,3.91a3.91,3.91,0,1,1,3.91-3.91A3.91,3.91,0,0,1,48.84,16.31Z"/><path class="cls-1" d="M22.47,77H3.7a1.85,1.85,0,1,0,0,3.7H22.47a1.85,1.85,0,1,0,0-3.7Z"/><path class="cls-1" d="M65.17,77H46.4a1.85,1.85,0,0,0,0,3.7H65.17a1.85,1.85,0,0,0,0-3.7Z"/></g></g></svg>