<svg xmlns="http://www.w3.org/2000/svg" viewBox="0 0 44.7 43.51"><defs><style>.cls-1{fill:#262424;}</style></defs><title>cube-connect</title><g id="Camada_2" data-name="Camada 2"><g id="Camada_1-2" data-name="Camada 1"><path class="cls-1" d="M29.48,27.64H16.69a1.29,1.29,0,0,0,0,2.58H29.48a1.29,1.29,0,0,0,0-2.58Z"/><path class="cls-1" d="M44.7,9.38a3.64,3.64,0,0,0-6.76-1.87l-11.31-2A5.74,5.74,0,1,0,15.88,8.53L6.52,16.95a4.32,4.32,0,1,0-1,7.87l9,13.64a3.4,3.4,0,1,0,6.32,2.26l15-5.77a3.6,3.6,0,1,0,4.32-5.61L42,12.9A3.64,3.64,0,0,0,44.7,9.38ZM37.52,29.08,31.2,20.79l8.18-8L37.61,29.05Zm-7-11.2A3.19,3.19,0,0,0,27.59,16h-9a3.19,3.19,0,0,0-3.18,3.18v.19h-7a4.28,4.28,0,0,0-.2-.51l9.36-8.42A5.74,5.74,0,0,0,26.17,8l11.3,2a3.61,3.61,0,0,0,.24.79Zm-2.3,1.3v4.38a.61.61,0,0,1-.6.6h-9a.61.61,0,0,1-.6-.6V19.18a.61.61,0,0,1,.6-.6h9A.61.61,0,0,1,28.19,19.18Zm-7.91,19a3.39,3.39,0,0,0-3.73-1.32L7.67,23.39A4.31,4.31,0,0,0,8.45,22h7v1.61a3.19,3.19,0,0,0,3.18,3.18h9a3.19,3.19,0,0,0,3.08-2.4l4.8,6.3a3.58,3.58,0,0,0-.54,1.89h0Z"/></g></g></svg>