<svg xmlns="http://www.w3.org/2000/svg" viewBox="0 0 53.31 50.42"><defs><style>.cls-1{fill:#262424;}</style></defs><title>dialup</title><g id="Camada_2" data-name="Camada 2"><g id="Camada_1-2" data-name="Camada 1"><path class="cls-1" d="M45,4.45H21.28a7.12,7.12,0,0,0-13.2,0A8.33,8.33,0,0,0,0,12.77V37.65A8.33,8.33,0,0,0,8.07,46a7.12,7.12,0,0,0,13.2,0H45a8.33,8.33,0,0,0,8.32-8.32V12.77A8.33,8.33,0,0,0,45,4.45ZM2.38,37.65V12.77A6,6,0,0,1,7.56,6.88c0,.08,0,.16,0,.25V43.29c0,.08,0,.17,0,.25A6,6,0,0,1,2.38,37.65Zm48.56,0A6,6,0,0,1,45,43.59H21.79c0-.1,0-.2,0-.3V7.13c0-.1,0-.2,0-.3H45a6,6,0,0,1,5.94,5.94Z"/><path class="cls-1" d="M44.6,9.78H27.17a2.57,2.57,0,0,0-2.57,2.57v1.08A2.57,2.57,0,0,0,27.17,16H44.6a2.57,2.57,0,0,0,2.57-2.57V12.35A2.57,2.57,0,0,0,44.6,9.78Zm.19,3.65a.2.2,0,0,1-.19.19H27.17a.2.2,0,0,1-.19-.19V12.35a.2.2,0,0,1,.19-.19H44.6a.2.2,0,0,1,.19.19Z"/><path class="cls-1" d="M27.8,24.75h1.62a2.18,2.18,0,0,0,2.18-2.18V21a2.18,2.18,0,0,0-2.18-2.18H27.8A2.18,2.18,0,0,0,25.62,21v1.62A2.18,2.18,0,0,0,27.8,24.75Zm.2-3.59h1.22v1.22H28Z"/><path class="cls-1" d="M35.06,24.75h1.62a2.18,2.18,0,0,0,2.18-2.18V21a2.18,2.18,0,0,0-2.18-2.18H35.06A2.18,2.18,0,0,0,32.88,21v1.62A2.18,2.18,0,0,0,35.06,24.75Zm.2-3.59h1.22v1.22H35.26Z"/><path class="cls-1" d="M42.11,24.75h1.62a2.18,2.18,0,0,0,2.18-2.18V21a2.18,2.18,0,0,0-2.18-2.18H42.11A2.18,2.18,0,0,0,39.94,21v1.62A2.18,2.18,0,0,0,42.11,24.75Zm.2-3.59h1.22v1.22H42.31Z"/><path class="cls-1" d="M29.53,25.93H27.91a2.18,2.18,0,0,0-2.18,2.18v1.62a2.18,2.18,0,0,0,2.18,2.18h1.62a2.18,2.18,0,0,0,2.18-2.18V28.1A2.18,2.18,0,0,0,29.53,25.93Zm-.2,3.59H28.11V28.31h1.22Z"/><path class="cls-1" d="M36.78,25.93H35.16A2.18,2.18,0,0,0,33,28.1v1.62a2.18,2.18,0,0,0,2.18,2.18h1.62A2.18,2.18,0,0,0,39,29.72V28.1A2.18,2.18,0,0,0,36.78,25.93Zm-.2,3.59H35.37V28.31h1.22Z"/><path class="cls-1" d="M43.84,25.93H42.22A2.18,2.18,0,0,0,40,28.1v1.62a2.18,2.18,0,0,0,2.18,2.18h1.62A2.18,2.18,0,0,0,46,29.72V28.1A2.18,2.18,0,0,0,43.84,25.93Zm-.2,3.59H42.42V28.31h1.22Z"/><path class="cls-1" d="M29.52,33H27.9a2.18,2.18,0,0,0-2.18,2.18v1.62A2.18,2.18,0,0,0,27.9,39h1.62a2.18,2.18,0,0,0,2.18-2.18V35.16A2.18,2.18,0,0,0,29.52,33Zm-.2,3.59H28.1V35.36h1.22Z"/><path class="cls-1" d="M36.78,33H35.16A2.18,2.18,0,0,0,33,35.16v1.62A2.18,2.18,0,0,0,35.16,39h1.62A2.18,2.18,0,0,0,39,36.78V35.16A2.18,2.18,0,0,0,36.78,33Zm-.2,3.59H35.36V35.36h1.22Z"/><path class="cls-1" d="M43.83,33H42.21A2.18,2.18,0,0,0,40,35.16v1.62A2.18,2.18,0,0,0,42.21,39h1.62A2.18,2.18,0,0,0,46,36.78V35.16A2.18,2.18,0,0,0,43.83,33Zm-.2,3.59H42.41V35.36h1.22Z"/></g></g></svg>