<svg xmlns="http://www.w3.org/2000/svg" viewBox="0 0 100.43 90.75"><defs><style>.cls-1{fill:#262424;}</style></defs><title>envelope-bag</title><g id="Camada_2" data-name="Camada 2"><g id="Camada_1-2" data-name="Camada 1"><path class="cls-1" d="M71.22,18a2,2,0,0,1-2-2v-7A4.9,4.9,0,0,0,64.31,4H36.12a4.9,4.9,0,0,0-4.9,4.9v7a2,2,0,0,1-4,0v-7A8.92,8.92,0,0,1,36.12,0H64.31a8.92,8.92,0,0,1,8.91,8.91v7A2,2,0,0,1,71.22,18Z"/><path class="cls-1" d="M88.81,90.75H11.62A11.63,11.63,0,0,1,0,79.13V34.73A11.63,11.63,0,0,1,11.62,23.11H88.81a11.63,11.63,0,0,1,11.62,11.62v44.4A11.63,11.63,0,0,1,88.81,90.75ZM11.62,27.49a7.25,7.25,0,0,0-7.24,7.24v44.4a7.25,7.25,0,0,0,7.24,7.24H88.81A7.25,7.25,0,0,0,96,79.13V34.73a7.25,7.25,0,0,0-7.24-7.24Z"/><path class="cls-1" d="M50.22,63.1a19.59,19.59,0,0,1-10.46-3l-.2-.14-30-24a2.19,2.19,0,0,1,2.74-3.42L42.19,56.45a15.28,15.28,0,0,0,16,0L88.12,32.51a2.19,2.19,0,0,1,2.74,3.42l-30,24-.2.14A19.59,19.59,0,0,1,50.22,63.1Z"/><path class="cls-1" d="M10,83.44A2,2,0,0,1,8.32,80.3L25.16,55.73A2,2,0,1,1,28.47,58L11.63,82.57A2,2,0,0,1,10,83.44Z"/><path class="cls-1" d="M89.57,83.44a2,2,0,0,1-1.66-.87L71.07,58a2,2,0,1,1,3.31-2.27L91.22,80.3a2,2,0,0,1-1.65,3.14Z"/></g></g></svg>