<svg xmlns="http://www.w3.org/2000/svg" viewBox="0 0 82.05 58.85"><defs><style>.cls-1{fill:#c1232a;}.cls-2{fill:#fff;}.cls-3{fill:#d15354;}.cls-4{fill:#da806b;}.cls-5{fill:#e6ac91;}</style></defs><title>global-conecction</title><g id="Camada_2" data-name="Camada 2"><g id="Camada_1-2" data-name="Camada 1"><path class="cls-1" d="M41,17.78A11.65,11.65,0,1,0,52.67,29.42,11.65,11.65,0,0,0,41,17.78Z"/><path class="cls-2" d="M39.48,20.11a.9.9,0,0,0-.48-.27c-.32-.09-.65-.07-.64.05-.31,0-.44.12-.45.28,0,.33.5.84,1.1.86C39.9,21.06,39.64,20.32,39.48,20.11Z"/><path class="cls-2" d="M47.44,21.47l0,0L47,21.17l-.07,0-.4-.24-.08,0L46,20.61l-.06,0a10.15,10.15,0,0,0-1-.44h0L44.42,20l-.15,0-.38-.1-.19,0-.35-.07-.2,0-.35-.05-.2,0-.38,0H42l-.57,0-.64,0c-.18.07-.51.24-.35.53s.79.92.21,1-.91.48-1.43.48-1.83-.53-1.89-.15-1.34,1.07-1.65,1-.46.53-1.28.53a3.53,3.53,0,0,0-.69.08,10.21,10.21,0,0,0-1.36,2,.83.83,0,0,0,.44,0c.79-.18,1.83-1.25,2.56-.71s1.16.77,1.1,1.78-.24,2.26.85,2.79.43,1.07,1.28,1.43,2,.53,2.32.77.85.77.85.77-.79.89-.49,1.37,1.77.71,1.65,1.9-1,3.22-1,3.63,0,1,0,1,1.4-.53,1.71-1.13a10.67,10.67,0,0,1,1.93-2.46,4.93,4.93,0,0,0,1.83-1.6c.37-.71,1.71-1.55.37-1.9s-1.46-1.49-2.5-1.55S44.45,31,43.74,31a5.48,5.48,0,0,0-1.46.42c-.3.06-.7-.06-.76-.36s-.37-.74-.58-.65.3-.53,0-.59-.61.42-.93.42S39.66,29,39.66,29s1.83-.21,1.92,0,.55.68.7.45-.3-.86-.21-1,2.13-1.46,2.2-2,1.16-.48,1.1-1.13-.67-.48-.76-.83-.49-.74-.79-.39a.47.47,0,0,1-.24.14c.13-.14.22-.28.21-.35s.88-.71,1.07-1-1.16-1-1.68-1.19a2.5,2.5,0,0,0-.81-.13,1,1,0,0,1,.2-.85c.37-.3.7.51,1,.51s1.25,0,1.46.33.61.71.61,1,.37,2.05,1.22,1.87.88-.71,1.28-.83.79.33,1.56.15a2.89,2.89,0,0,0-.2-.35A10.27,10.27,0,0,0,47.44,21.47Zm-5,.93v-.06a1.25,1.25,0,0,0,.31.09c.3,0,.43.74-.18,1.19-.46.33-.24.71,0,.93-.14.2-.29.43-.51.4a2,2,0,0,1-1.1-.62c-.18-.27.37-1,.73-1.25S42.46,22.84,42.43,22.4Z"/><path class="cls-3" d="M54.57,44.34a1.37,1.37,0,0,1-1-2.34,17.78,17.78,0,0,0,3.94-19.19,1.37,1.37,0,0,1,2.54-1,20.51,20.51,0,0,1-4.55,22.14A1.36,1.36,0,0,1,54.57,44.34Z"/><path class="cls-3" d="M56.08,18.94A1.37,1.37,0,0,1,55,18.42a17.66,17.66,0,0,0-1.4-1.57,1.37,1.37,0,1,1,1.93-1.94,20.77,20.77,0,0,1,1.61,1.81,1.37,1.37,0,0,1-1.07,2.22Z"/><path class="cls-4" d="M20.71,51.11a1.36,1.36,0,0,1-1-.4,30.14,30.14,0,0,1,0-42.57,1.37,1.37,0,0,1,1.93,1.93,27.4,27.4,0,0,0,0,38.7,1.37,1.37,0,0,1-1,2.34Z"/><path class="cls-4" d="M61.34,51.11a1.37,1.37,0,0,1-1-2.34,27.4,27.4,0,0,0,0-38.7,1.37,1.37,0,1,1,1.93-1.93,30.14,30.14,0,0,1,0,42.57A1.36,1.36,0,0,1,61.34,51.11Z"/><path class="cls-5" d="M13,58.85a1.36,1.36,0,0,1-1-.4,41.09,41.09,0,0,1,0-58,1.37,1.37,0,0,1,1.93,1.93,38.35,38.35,0,0,0,0,54.18,1.37,1.37,0,0,1-1,2.34Z"/><path class="cls-5" d="M69.08,58.85a1.37,1.37,0,0,1-1-2.34,38.35,38.35,0,0,0,0-54.18A1.37,1.37,0,1,1,70.05.4a41.09,41.09,0,0,1,0,58A1.36,1.36,0,0,1,69.08,58.85Z"/><path class="cls-3" d="M23.24,37.91A1.37,1.37,0,0,1,22,37.05a20.51,20.51,0,0,1,4.55-22.14,1.37,1.37,0,0,1,1.93,1.93A17.78,17.78,0,0,0,24.51,36a1.37,1.37,0,0,1-1.27,1.88Z"/><path class="cls-3" d="M27.48,44.34a1.37,1.37,0,0,1-1-.4,20.77,20.77,0,0,1-1.61-1.81,1.37,1.37,0,0,1,2.15-1.7A17.66,17.66,0,0,0,28.45,42a1.37,1.37,0,0,1-1,2.34Z"/></g></g></svg>