<svg xmlns="http://www.w3.org/2000/svg" viewBox="0 0 53.66 53.65"><title>global</title><g id="Camada_2" data-name="Camada 2"><g id="Camada_1-2" data-name="Camada 1"><path d="M46.39,8.49l0,0A26.69,26.69,0,0,0,27.76,0H25.9A26.66,26.66,0,0,0,7.3,8.46h0a26.76,26.76,0,0,0-.54,36.11l0,0,.06.06A26.59,26.59,0,0,0,25.9,53.63l.93,0h.93a27,27,0,0,0,19.08-9h0l0,0,0,0a26.77,26.77,0,0,0-.52-36.1Zm4.94,19.72a24.24,24.24,0,0,1-5.45,14.06.23.23,0,0,1-.3,0,34.24,34.24,0,0,0-6.72-3.43.22.22,0,0,1-.13-.29,34,34,0,0,0,2.05-10.42A.23.23,0,0,1,41,28H51.1A.23.23,0,0,1,51.33,28.21ZM40.77,25.46a34,34,0,0,0-2.35-11.21.22.22,0,0,1,.13-.29,34.23,34.23,0,0,0,6.52-3.21.23.23,0,0,1,.3,0,24.52,24.52,0,0,1,6,14.66.23.23,0,0,1-.23.24H41A.23.23,0,0,1,40.77,25.46ZM38,41a31.79,31.79,0,0,1,6,3,.24.24,0,0,1,0,.36,24.66,24.66,0,0,1-12.56,6.57.23.23,0,0,1-.2-.39,33.81,33.81,0,0,0,6.46-9.41A.23.23,0,0,1,38,41Zm-.64-29.26a34,34,0,0,0-6.1-8.64.23.23,0,0,1,.2-.39,24.3,24.3,0,0,1,12,6,.24.24,0,0,1,0,.37,32,32,0,0,1-5.75,2.75A.23.23,0,0,1,37.32,11.75ZM28,25.45V16.22a.23.23,0,0,1,.22-.23A34.2,34.2,0,0,0,36,14.8a.23.23,0,0,1,.27.13,31.66,31.66,0,0,1,2.26,10.51.23.23,0,0,1-.23.24H28.2A.23.23,0,0,1,28,25.45Zm10.51,2.76a31.71,31.71,0,0,1-1.94,9.68.23.23,0,0,1-.28.14,33.89,33.89,0,0,0-8.08-1.29.23.23,0,0,1-.22-.23V28.2A.23.23,0,0,1,28.2,28H38.26A.23.23,0,0,1,38.49,28.21ZM28,13.47V3.67a.23.23,0,0,1,.39-.17,31.64,31.64,0,0,1,6.7,8.87.24.24,0,0,1-.15.33,31.89,31.89,0,0,1-6.7,1A.23.23,0,0,1,28,13.47Zm7.49,27a31.55,31.55,0,0,1-7.1,9.68A.23.23,0,0,1,28,50V39.26a.23.23,0,0,1,.24-.23,31.88,31.88,0,0,1,7.1,1.11A.23.23,0,0,1,35.46,40.46ZM18.6,12.37A31.69,31.69,0,0,1,25.3,3.5a.23.23,0,0,1,.39.17v9.8a.23.23,0,0,1-.24.23,31.82,31.82,0,0,1-6.7-1A.24.24,0,0,1,18.6,12.37ZM16,41.13a33.94,33.94,0,0,0,6.46,9.42.23.23,0,0,1-.2.39A24.63,24.63,0,0,1,9.68,44.36a.23.23,0,0,1,0-.36,31.66,31.66,0,0,1,6-3A.23.23,0,0,1,16,41.13Zm.08-29.26A31.74,31.74,0,0,1,10.3,9.11a.24.24,0,0,1,0-.37,24.3,24.3,0,0,1,12-6,.23.23,0,0,1,.2.39,33.89,33.89,0,0,0-6.1,8.64A.23.23,0,0,1,16.06,11.86ZM25.68,28.2v8.32a.23.23,0,0,1-.22.23A34.12,34.12,0,0,0,17.39,38a.23.23,0,0,1-.28-.14,31.72,31.72,0,0,1-1.94-9.68.23.23,0,0,1,.23-.24h10A.23.23,0,0,1,25.68,28.2ZM15.17,25.44a31.66,31.66,0,0,1,2.26-10.51.23.23,0,0,1,.27-.13A34.11,34.11,0,0,0,25.47,16a.23.23,0,0,1,.22.23v9.23a.23.23,0,0,1-.23.23h-10A.23.23,0,0,1,15.17,25.44Zm-2.29,2.75a34,34,0,0,0,2.06,10.42.22.22,0,0,1-.13.29,34.14,34.14,0,0,0-6.73,3.43.23.23,0,0,1-.3,0A24.24,24.24,0,0,1,2.33,28.21.23.23,0,0,1,2.56,28H12.66A.23.23,0,0,1,12.88,28.19ZM2.33,25.44A24.53,24.53,0,0,1,8.28,10.78a.23.23,0,0,1,.3,0A34.37,34.37,0,0,0,15.1,14a.22.22,0,0,1,.13.29,34,34,0,0,0-2.35,11.21.23.23,0,0,1-.23.22H2.57A.23.23,0,0,1,2.33,25.44ZM25.68,39.26V50a.23.23,0,0,1-.39.17,31.64,31.64,0,0,1-7.1-9.68.23.23,0,0,1,.15-.32A31.87,31.87,0,0,1,25.44,39,.23.23,0,0,1,25.68,39.26Z"/></g></g></svg>