<svg xmlns="http://www.w3.org/2000/svg" viewBox="0 0 46.71 39"><defs><style>.cls-1{fill:#262424;}</style></defs><title>interconection</title><g id="Camada_2" data-name="Camada 2"><g id="Camada_1-2" data-name="Camada 1"><path class="cls-1" d="M39.57,6.5H33a7.15,7.15,0,0,0-7.14,7.14V31.87A7.15,7.15,0,0,0,33,39H45.42a1.29,1.29,0,0,0,1.29-1.29V13.63A7.15,7.15,0,0,0,39.57,6.5Zm4.56,29.93H33a4.56,4.56,0,0,1-4.56-4.56V13.63A4.56,4.56,0,0,1,33,9.08h6.54a4.56,4.56,0,0,1,4.56,4.56Z"/><path class="cls-1" d="M21.61,8.25l-.22-.13A5.09,5.09,0,0,0,19,4.32,6.34,6.34,0,0,0,12.41,0,6.87,6.87,0,0,0,8.64,1.34a6.07,6.07,0,0,0-4.5,1.18,6.88,6.88,0,0,0-2.3,4.1A5.43,5.43,0,0,0,.21,12.14a5.27,5.27,0,0,0,5,3.44H19.81A3.8,3.8,0,0,0,23.66,12c0-.09,0-.18,0-.27A4.21,4.21,0,0,0,21.61,8.25ZM21,12.82a1.63,1.63,0,0,1-1.17.5H5.2a3,3,0,0,1-2.85-1.94A3.21,3.21,0,0,1,3.49,8.2,1.13,1.13,0,0,0,4,7.34,4.82,4.82,0,0,1,5.55,4.29a3.63,3.63,0,0,1,2.33-.72,6.47,6.47,0,0,1,1,.08,1.14,1.14,0,0,0,1-.37,4.14,4.14,0,0,1,2.72-1A4.11,4.11,0,0,1,17,5.45a1.12,1.12,0,0,0,.62.69A2.88,2.88,0,0,1,19.18,8.8a1.13,1.13,0,0,0,.71,1l.57.35a1.91,1.91,0,0,1,.95,1.53A1.49,1.49,0,0,1,21,12.82Z"/><path class="cls-1" d="M39.44,13H32.86a1,1,0,1,0,0,2.09h6.57a1,1,0,0,0,0-2.09Z"/><path class="cls-1" d="M39.44,18.64H32.86a1,1,0,1,0,0,2.09h6.57a1,1,0,0,0,0-2.09Z"/><path class="cls-1" d="M39.44,24.32H32.86a1,1,0,1,0,0,2.09h6.57a1,1,0,0,0,0-2.09Z"/><path class="cls-1" d="M39.44,30H32.86a1,1,0,1,0,0,2.09h6.57a1,1,0,0,0,0-2.09Z"/></g></g></svg>