<svg xmlns="http://www.w3.org/2000/svg" viewBox="0 0 32.61 43.77"><defs><style>.cls-1{fill:#262424;}</style></defs><title>ip</title><g id="Camada_2" data-name="Camada 2"><g id="Camada_1-2" data-name="Camada 1"><path class="cls-1" d="M30.81,8.87A16.23,16.23,0,0,0,16.3,0h0A16.31,16.31,0,0,0,2.75,25.38L14.42,42.81a2.17,2.17,0,0,0,1.8,1h0a2.17,2.17,0,0,0,1.8-1h0L29.8,25.45A16.3,16.3,0,0,0,30.81,8.87ZM28,24.23,16.24,41.61l.9.61-.91-.61L4.55,24.18A14.16,14.16,0,0,1,3.69,9.92,13.9,13.9,0,0,1,16.27,2.16h0A13.9,13.9,0,0,1,28.89,9.85,14.14,14.14,0,0,1,28,24.23Z"/><rect class="cls-1" x="9.06" y="8.68" width="2.96" height="14.25"/><path class="cls-1" d="M24.35,9.78A4.93,4.93,0,0,0,21,8.68H14.87V22.92h3V17.8h3a5.43,5.43,0,0,0,3.57-1,4.42,4.42,0,0,0,1.25-3.57A4.3,4.3,0,0,0,24.35,9.78Zm-2.26,5.05a2.28,2.28,0,0,1-1.58.51H17.82V11.15H20.5a2.4,2.4,0,0,1,1.58.47,2,2,0,0,1,.57,1.58A2.09,2.09,0,0,1,22.09,14.84Z"/></g></g></svg>