<svg xmlns="http://www.w3.org/2000/svg" viewBox="0 0 43.16 36.36"><defs><style>.cls-1{fill:#262424;}</style></defs><title>jumper</title><g id="Camada_2" data-name="Camada 2"><g id="Camada_1-2" data-name="Camada 1"><path class="cls-1" d="M18.88,30.49a1.29,1.29,0,0,0-1.29-1.29H9V18.5a1.29,1.29,0,0,0-2.58,0v12a1.29,1.29,0,0,0,1.29,1.29h9.91A1.29,1.29,0,0,0,18.88,30.49Z"/><path class="cls-1" d="M20,25.13a1.29,1.29,0,0,0-2,1.58l2.93,3.79L18,34.29a1.29,1.29,0,0,0,2,1.58l3.53-4.58a1.29,1.29,0,0,0,0-1.58Z"/><path class="cls-1" d="M33.69,18.5a1.29,1.29,0,1,0,2.58,0V5.87A1.29,1.29,0,0,0,35,4.58H25.08a1.29,1.29,0,0,0,0,2.58h8.62Z"/><path class="cls-1" d="M21.76,5.87l2.93-3.79a1.29,1.29,0,1,0-2-1.58L19.11,5.08a1.29,1.29,0,0,0,0,1.58l3.53,4.58a1.29,1.29,0,1,0,2-1.58Z"/><path class="cls-1" d="M3.18,10.89h9a3.19,3.19,0,0,0,3.18-3.18V3.33A3.19,3.19,0,0,0,12.18.14h-9A3.19,3.19,0,0,0,0,3.33V7.71A3.19,3.19,0,0,0,3.18,10.89Zm-.6-7.57a.6.6,0,0,1,.6-.6h9a.61.61,0,0,1,.6.6V7.71a.61.61,0,0,1-.6.6h-9a.61.61,0,0,1-.6-.6Z"/><path class="cls-1" d="M15.37,13.08a1.29,1.29,0,0,0-1.29-1.29H1.29a1.29,1.29,0,1,0,0,2.58H14.08A1.29,1.29,0,0,0,15.37,13.08Z"/><path class="cls-1" d="M40,21.85H31A3.19,3.19,0,0,0,27.79,25v4.38A3.19,3.19,0,0,0,31,32.6h9a3.19,3.19,0,0,0,3.18-3.18V25A3.19,3.19,0,0,0,40,21.85Zm.6,7.57a.6.6,0,0,1-.6.6H31a.61.61,0,0,1-.6-.6V25a.61.61,0,0,1,.6-.6h9a.6.6,0,0,1,.6.6Z"/><path class="cls-1" d="M41.87,33.49H29.08a1.29,1.29,0,1,0,0,2.58H41.87a1.29,1.29,0,1,0,0-2.58Z"/></g></g></svg>