<svg xmlns="http://www.w3.org/2000/svg" viewBox="0 0 43.32 67.51"><defs><style>.cls-1{fill:#b2242a;}.cls-2{fill:#fff;}</style></defs><title>marker</title><g id="Camada_2" data-name="Camada 2"><g id="Camada_1-2" data-name="Camada 1"><path class="cls-1" d="M43.32,21.38A21.52,21.52,0,0,0,21.66,0,21.52,21.52,0,0,0,0,21.38c0,.25,0,.49,0,.73s0,.44,0,.67C0,33.25,19.89,66.24,20.74,67.13h0a1.31,1.31,0,0,0,1.85,0c.85-.89,20.74-33.88,20.74-44.34,0-.22,0-.45,0-.67S43.32,21.63,43.32,21.38Z"/><path class="cls-2" d="M29.64,8.89a4.77,4.77,0,0,0-4.47,1.67,3.45,3.45,0,0,1-2.66,1.26h-.2a3.5,3.5,0,0,1-2.68-1.28,4.77,4.77,0,1,0-6.75,6.7A3.6,3.6,0,0,1,14.18,20v.17a3.46,3.46,0,0,1-1.24,2.68,4.78,4.78,0,1,0,6.1,0,3.56,3.56,0,0,1-1.28-2.6,4.55,4.55,0,0,1,0-.67A4.36,4.36,0,0,1,22,15.18a4.26,4.26,0,0,1,3.35,1.64,2.42,2.42,0,0,0,.26.29,4.78,4.78,0,1,0,4-8.23Z"/></g></g></svg>