<svg xmlns="http://www.w3.org/2000/svg" viewBox="0 0 44.39 44.6"><defs><style>.menu-wifi-1{fill:#262424;}</style></defs><title>menu-wifi</title><g id="Camada_2" data-name="Camada 2"><g id="Camada_1-2" data-name="Camada 1"><path class="menu-wifi-1" d="M12.7,28.07a7.56,7.56,0,1,0,3.62,4.51A7.57,7.57,0,0,0,12.7,28.07ZM13,36.88a4.56,4.56,0,1,1,.38-3.47A4.56,4.56,0,0,1,13,36.88Z"/><path class="menu-wifi-1" d="M8.34,13.5a22.86,22.86,0,0,0-2.53.14A4.71,4.71,0,0,0,6.33,23l.52,0a13.34,13.34,0,0,1,1.48-.08A13,13,0,0,1,21.2,37.58l-.11.87a4.71,4.71,0,1,0,9.35,1.2l.11-.87A22.43,22.43,0,0,0,8.34,13.5ZM27.58,38.4l-.11.87a1.71,1.71,0,0,1-1.7,1.49h-.22a1.71,1.71,0,0,1-1.48-1.91l.11-.87a16,16,0,0,0-15.85-18,16.28,16.28,0,0,0-1.81.1H6.33a1.71,1.71,0,0,1-.19-3.41,19.77,19.77,0,0,1,2.2-.12A19.43,19.43,0,0,1,27.58,38.4Z"/><path class="menu-wifi-1" d="M4.62,0a4.62,4.62,0,1,0,0,9.24A30.56,30.56,0,0,1,35.15,39.77V40a4.62,4.62,0,0,0,9.24,0v-.21A39.81,39.81,0,0,0,4.62,0ZM41.39,40a1.62,1.62,0,0,1-3.24,0v-.21A33.56,33.56,0,0,0,4.62,6.24,1.62,1.62,0,1,1,4.62,3,36.81,36.81,0,0,1,41.39,39.77Z"/></g></g></svg>