<svg xmlns="http://www.w3.org/2000/svg" viewBox="0 0 50.78 50.86"><defs><style>.menu-mob-1{fill:none;stroke:#ea0000;stroke-miterlimit:10;stroke-width:3px;}</style></defs><title>menu-mob</title><g id="Camada_2" data-name="Camada 2"><g id="Camada_1-2" data-name="Camada 1"><path class="menu-mob-1" d="M40.79,1.64a10.16,10.16,0,0,0-9.52,3.55A7.36,7.36,0,0,1,25.6,7.87h-.43a7.46,7.46,0,0,1-5.71-2.72A10.17,10.17,0,1,0,5.09,19.42a7.66,7.66,0,0,1,2.78,5.82v.37a7.37,7.37,0,0,1-2.65,5.71,10.17,10.17,0,1,0,13,.08,7.58,7.58,0,0,1-2.73-5.54,9.69,9.69,0,0,1-.11-1.43A9.29,9.29,0,0,1,24.54,15a9.08,9.08,0,0,1,7.14,3.5,5.15,5.15,0,0,0,.55.62A10.17,10.17,0,1,0,40.79,1.64Z"/></g></g></svg>