<svg xmlns="http://www.w3.org/2000/svg" viewBox="0 0 62.59 56.15"><defs><style>.menu-graph-1{fill:#262424;}</style></defs><title>menu-graph</title><g id="Camada_2" data-name="Camada 2"><g id="Camada_1-2" data-name="Camada 1"><path class="menu-graph-1" d="M13.48,54.95H5.55A5.56,5.56,0,0,1,0,49.39V5.55A5.56,5.56,0,0,1,5.55,0h7.92A5.56,5.56,0,0,1,19,5.55V49.39A5.56,5.56,0,0,1,13.48,54.95ZM5.55,2.8A2.76,2.76,0,0,0,2.8,5.55V49.39a2.76,2.76,0,0,0,2.76,2.76h7.92a2.76,2.76,0,0,0,2.76-2.76V5.55A2.76,2.76,0,0,0,13.48,2.8Z"/><path class="menu-graph-1" d="M35.63,55.82H27.71a5.56,5.56,0,0,1-5.55-5.55V29.58A5.56,5.56,0,0,1,27.71,24h7.92a5.56,5.56,0,0,1,5.55,5.55V50.26A5.56,5.56,0,0,1,35.63,55.82Zm-7.92-29a2.76,2.76,0,0,0-2.76,2.76V50.26A2.76,2.76,0,0,0,27.71,53h7.92a2.76,2.76,0,0,0,2.76-2.76V29.58a2.76,2.76,0,0,0-2.76-2.76Z"/><path class="menu-graph-1" d="M57,56.15H49.12a5.56,5.56,0,0,1-5.55-5.55V42.67a5.56,5.56,0,0,1,5.55-5.55H57a5.56,5.56,0,0,1,5.55,5.55v7.92A5.56,5.56,0,0,1,57,56.15ZM49.12,39.91a2.76,2.76,0,0,0-2.76,2.76v7.92a2.76,2.76,0,0,0,2.76,2.76H57a2.76,2.76,0,0,0,2.76-2.76V42.67A2.76,2.76,0,0,0,57,39.91Z"/><path class="menu-graph-1" d="M60.5,32.62C60.32,32.54,42.7,24.5,32.72,10l.67-.41a2.72,2.72,0,0,0-.11-4.7L28.54,2.33a2.72,2.72,0,0,0-4,2.61L25,10.18a2.7,2.7,0,0,0,1.48,2.2,2.7,2.7,0,0,0,2.65-.11l.94-.58C35.4,19.5,42.79,25.44,48.17,29.1a79.47,79.47,0,0,0,11,6.39,1.57,1.57,0,0,0,1.28-2.86ZM28,8.41l-.17-2a.51.51,0,0,1,.76-.49l1.8,1a.51.51,0,0,1,0,.89l-1.63,1A.51.51,0,0,1,28,8.41Z"/></g></g></svg>