<svg xmlns="http://www.w3.org/2000/svg" viewBox="0 0 55.57 44.32"><defs><style>.cls-1{fill:#262424;}</style></defs><title>menu-flag</title><g id="Camada_2" data-name="Camada 2"><g id="Camada_1-2" data-name="Camada 1"><path class="cls-1" d="M54.79,37,46.15,25.71A2.92,2.92,0,0,1,46,22.39l7.36-12.12a3.76,3.76,0,0,0-3.45-5.7L31,5.95l-.06-1.13A5.09,5.09,0,0,0,25.55,0L4.42.92A4.67,4.67,0,0,0,0,5.84L1.6,34.94a4.67,4.67,0,0,0,4.64,4.42H6.5l22.23-1,0,.33a6,6,0,0,0,6,5.63h.35L52,43a3.76,3.76,0,0,0,2.78-6ZM6.3,35.36a.67.67,0,0,1-.71-.63L4,5.62H4a.67.67,0,0,1,.17-.48.65.65,0,0,1,.44-.22L25.75,4h.06A1.1,1.1,0,0,1,26.9,5L27,6.24h0l1.54,28.13Zm28.5,5a2,2,0,0,1-2.06-1.85l-.62-11.23-.95-17.3L49.67,8.59,42.55,20.32A6.9,6.9,0,0,0,43,28.15L51.35,39Z"/></g></g></svg>