<svg xmlns="http://www.w3.org/2000/svg" viewBox="0 0 34.66 43.66"><defs><style>.cls-1{fill:#262424;}</style></defs><title>numeros</title><g id="Camada_2" data-name="Camada 2"><g id="Camada_1-2" data-name="Camada 1"><path class="cls-1" d="M3.14,9.77H6.62A3.15,3.15,0,0,0,9.77,6.62V3.14A3.15,3.15,0,0,0,6.62,0H3.14A3.15,3.15,0,0,0,0,3.14V6.62A3.15,3.15,0,0,0,3.14,9.77ZM1.81,3.14A1.34,1.34,0,0,1,3.14,1.81H6.62A1.34,1.34,0,0,1,8,3.14V6.62A1.34,1.34,0,0,1,6.62,8H3.14A1.34,1.34,0,0,1,1.81,6.62Z"/><path class="cls-1" d="M15.69,9.77h3.48a3.15,3.15,0,0,0,3.14-3.14V3.14A3.15,3.15,0,0,0,19.17,0H15.69a3.15,3.15,0,0,0-3.14,3.14V6.62A3.15,3.15,0,0,0,15.69,9.77ZM14.36,3.14a1.34,1.34,0,0,1,1.33-1.33h3.48A1.34,1.34,0,0,1,20.5,3.14V6.62A1.34,1.34,0,0,1,19.17,8H15.69a1.34,1.34,0,0,1-1.33-1.33Z"/><path class="cls-1" d="M27.84,9.77h3.48a3.15,3.15,0,0,0,3.14-3.14V3.14A3.15,3.15,0,0,0,31.32,0H27.84A3.15,3.15,0,0,0,24.7,3.14V6.62A3.15,3.15,0,0,0,27.84,9.77ZM26.51,3.14a1.34,1.34,0,0,1,1.33-1.33h3.48a1.34,1.34,0,0,1,1.33,1.33V6.62A1.34,1.34,0,0,1,31.32,8H27.84a1.34,1.34,0,0,1-1.33-1.33Z"/><path class="cls-1" d="M3.14,21H6.62a3.15,3.15,0,0,0,3.14-3.14V14.35a3.15,3.15,0,0,0-3.14-3.14H3.14A3.15,3.15,0,0,0,0,14.35v3.48A3.15,3.15,0,0,0,3.14,21ZM1.81,14.35A1.34,1.34,0,0,1,3.14,13H6.62A1.34,1.34,0,0,1,8,14.35v3.48a1.34,1.34,0,0,1-1.33,1.33H3.14a1.34,1.34,0,0,1-1.33-1.33Z"/><path class="cls-1" d="M15.69,21h3.48a3.15,3.15,0,0,0,3.14-3.14V14.35a3.15,3.15,0,0,0-3.14-3.14H15.69a3.15,3.15,0,0,0-3.14,3.14v3.48A3.15,3.15,0,0,0,15.69,21Zm-1.33-6.62A1.34,1.34,0,0,1,15.69,13h3.48a1.34,1.34,0,0,1,1.33,1.33v3.48a1.34,1.34,0,0,1-1.33,1.33H15.69a1.34,1.34,0,0,1-1.33-1.33Z"/><path class="cls-1" d="M27.84,21h3.48a3.15,3.15,0,0,0,3.14-3.14V14.35a3.15,3.15,0,0,0-3.14-3.14H27.84a3.15,3.15,0,0,0-3.14,3.14v3.48A3.15,3.15,0,0,0,27.84,21Zm-1.33-6.62A1.34,1.34,0,0,1,27.84,13h3.48a1.34,1.34,0,0,1,1.33,1.33v3.48a1.34,1.34,0,0,1-1.33,1.33H27.84a1.34,1.34,0,0,1-1.33-1.33Z"/><path class="cls-1" d="M6.82,22.41H3.34A3.15,3.15,0,0,0,.2,25.56V29a3.15,3.15,0,0,0,3.14,3.14H6.82A3.15,3.15,0,0,0,10,29V25.56A3.15,3.15,0,0,0,6.82,22.41ZM8.15,29a1.34,1.34,0,0,1-1.33,1.33H3.34A1.34,1.34,0,0,1,2,29V25.56a1.34,1.34,0,0,1,1.33-1.33H6.82a1.34,1.34,0,0,1,1.33,1.33Z"/><path class="cls-1" d="M19.37,22.41H15.89a3.15,3.15,0,0,0-3.14,3.14V29a3.15,3.15,0,0,0,3.14,3.14h3.48A3.15,3.15,0,0,0,22.51,29V25.56A3.15,3.15,0,0,0,19.37,22.41ZM20.7,29a1.34,1.34,0,0,1-1.33,1.33H15.89A1.34,1.34,0,0,1,14.55,29V25.56a1.34,1.34,0,0,1,1.33-1.33h3.48a1.34,1.34,0,0,1,1.33,1.33Z"/><path class="cls-1" d="M31.52,22.41H28a3.15,3.15,0,0,0-3.14,3.14V29A3.15,3.15,0,0,0,28,32.18h3.48A3.15,3.15,0,0,0,34.66,29V25.56A3.15,3.15,0,0,0,31.52,22.41ZM32.85,29a1.34,1.34,0,0,1-1.33,1.33H28A1.34,1.34,0,0,1,26.71,29V25.56A1.34,1.34,0,0,1,28,24.22h3.48a1.34,1.34,0,0,1,1.33,1.33Z"/><path class="cls-1" d="M19.37,33.89H15.89A3.15,3.15,0,0,0,12.74,37v3.48a3.15,3.15,0,0,0,3.14,3.14h3.48a3.15,3.15,0,0,0,3.14-3.14V37A3.15,3.15,0,0,0,19.37,33.89Zm1.33,6.62a1.34,1.34,0,0,1-1.33,1.33H15.89a1.34,1.34,0,0,1-1.33-1.33V37a1.34,1.34,0,0,1,1.33-1.33h3.48A1.34,1.34,0,0,1,20.7,37Z"/></g></g></svg>