<svg xmlns="http://www.w3.org/2000/svg" viewBox="0 0 102.3 72.24"><defs><style>.cls-1{fill:#262424;}</style></defs><title>nuvem</title><g id="Camada_2" data-name="Camada 2"><g id="Camada_1-2" data-name="Camada 1"><path class="cls-1" d="M93.31,40.3a3,3,0,0,0,6,0A22.49,22.49,0,0,0,88,20.22C83.08,6.59,72-.9,58,.09,48.32.78,42.64,4.61,40.31,6.6c-8.5-1-15.59.71-21.11,5.1-7.73,6.15-9.9,15.71-10.46,19.35C.57,37.2-1.4,49.3.89,55.71a23.13,23.13,0,0,0,21.88,15l29.6,0h0a3,3,0,0,0,0-6l-29.6,0A17.13,17.13,0,0,1,6.52,53.69C4.85,49,6.9,39.24,13.15,35.27A3,3,0,0,0,14.53,33c0-.11.9-10.63,8.4-16.6,4.47-3.56,10.52-4.79,18-3.67a3,3,0,0,0,2.69-1c.18-.2,4.56-4.94,14.9-5.68,5.48-.4,18.81.5,24.21,17.19a3,3,0,0,0,1.66,1.82A16.57,16.57,0,0,1,93.31,40.3Z"/><rect class="cls-1" x="68.77" y="43.56" width="14.66" height="14.66" rx="7.33" ry="7.33"/><path class="cls-1" d="M91.55,57.15a5.55,5.55,0,1,0,5.55,5.55A5.56,5.56,0,0,0,91.55,57.15Z"/><path class="cls-1" d="M78.42,62.23a5,5,0,0,0-5,5h0a5,5,0,0,0,10,0h0A5,5,0,0,0,78.42,62.23Z"/><rect class="cls-1" x="64.44" y="62.23" width="5.01" height="5.01" rx="1.36" ry="1.36"/><rect class="cls-1" x="97.09" y="48.58" width="4.61" height="4.61" rx="1.25" ry="1.25"/><rect class="cls-1" x="98.31" y="68.25" width="4" height="4" rx="1.08" ry="1.08"/></g></g></svg>