<svg xmlns="http://www.w3.org/2000/svg" viewBox="0 0 41.12 33.96"><defs><style>.cls-1{fill:#262424;}</style></defs><title>partner</title><g id="Camada_2" data-name="Camada 2"><g id="Camada_1-2" data-name="Camada 1"><path class="cls-1" d="M11.26,19.91h-.43a8.36,8.36,0,0,1-7.92-8.75h0a8.35,8.35,0,1,1,8.35,8.76ZM4.82,11.24a6.44,6.44,0,1,0,6.76-6.11,6.45,6.45,0,0,0-6.76,6.11Z"/><path class="cls-1" d="M22.51,30.91A11.33,11.33,0,0,0,0,30.91H0a.88.88,0,0,0,.49.79A24.66,24.66,0,0,0,7,33.61a27.56,27.56,0,0,0,4.34.35A25.73,25.73,0,0,0,22,31.71a.88.88,0,0,0,.52-.8Zm-15.13,1a25.62,25.62,0,0,1-5-1.32.44.44,0,0,1-.27-.51,9.42,9.42,0,0,1,18.38.12.3.3,0,0,1-.18.34A24.67,24.67,0,0,1,7.38,31.88Z"/><path class="cls-1" d="M29.87,16.7h-.43a8.36,8.36,0,0,1-7.92-8.75h0a8.35,8.35,0,1,1,8.35,8.76ZM23.43,8a6.44,6.44,0,1,0,6.76-6.11A6.45,6.45,0,0,0,23.43,8Z"/><path class="cls-1" d="M29.86,17.63a11.31,11.31,0,0,0-9,4.47.93.93,0,0,0,.07,1.21h0a1,1,0,0,0,1.44-.08A9.41,9.41,0,0,1,39.07,27a.31.31,0,0,1-.19.34A24.67,24.67,0,0,1,26,28.67l-.56-.08a.86.86,0,0,0-.94,1.07v0a.87.87,0,0,0,.69.64l.46.08a27.56,27.56,0,0,0,4.34.35,25.74,25.74,0,0,0,10.6-2.24.88.88,0,0,0,.52-.8h0A11.34,11.34,0,0,0,29.86,17.63Z"/></g></g></svg>