<svg xmlns="http://www.w3.org/2000/svg" viewBox="0 0 99.65 99.65"><defs><style>.cls-1{fill:#262424;}</style></defs><title>phone-arroba</title><g id="Camada_2" data-name="Camada 2"><g id="Camada_1-2" data-name="Camada 1"><path class="cls-1" d="M16,13.13a50,50,0,0,0-2.84,70.53q.68.74,1.4,1.46a50.1,50.1,0,0,0,62.65,6.4,10.19,10.19,0,0,0,1.57-15.69L76.34,73.4l3.08-3.08a6.55,6.55,0,0,0-1.79-10.53l-14.46-7a2.14,2.14,0,0,0-2.48.45l-4.74,4.93h-.59l-.13-.05A24.63,24.63,0,0,1,41.54,44.36l-.17-.44,5-5a2.16,2.16,0,0,0,.44-2.46l-7-14.51a6.53,6.53,0,0,0-10.5-1.78L26.6,22.86a22.23,22.23,0,0,0-5.06,23.4A54.34,54.34,0,0,0,53.38,78.13,21.83,21.83,0,0,0,72.53,76.3l.63-.39.37.64a2.08,2.08,0,0,0,.31.4l1.91,1.92a5.88,5.88,0,0,1,0,8.3,5.82,5.82,0,0,1-.91.75A45.59,45.59,0,0,1,17.6,17.57q.65-.66,1.33-1.28A45.54,45.54,0,0,1,92.22,66.35a2.17,2.17,0,0,0,1.19,2.83A2.16,2.16,0,0,0,96.22,68,49.87,49.87,0,0,0,52.17,0H47.32A49.92,49.92,0,0,0,16,13.13ZM73.7,70A17.8,17.8,0,0,1,54.88,74.1,50,50,0,0,1,25.56,44.72a17.9,17.9,0,0,1,4.07-18.81l2.73-2.74a2.18,2.18,0,0,1,1.57-.66h.36A2.2,2.2,0,0,1,36,23.76l6.32,13.12-3.81,3.82a4.63,4.63,0,0,0-1,5A29,29,0,0,0,53.65,62.08l.32.12a4.68,4.68,0,0,0,5.15-1.11l3.59-3.74,13.11,6.32a2.25,2.25,0,0,1,1,3,2.31,2.31,0,0,1-.43.6Z"/></g></g></svg>