<svg xmlns="http://www.w3.org/2000/svg" viewBox="0 0 54.37 108.74"><title>rj45</title><g id="Camada_2" data-name="Camada 2"><g id="Camada_1-2" data-name="Camada 1"><path d="M49.84,32.1V2.27A2.26,2.26,0,0,0,47.57,0H6.8A2.26,2.26,0,0,0,4.53,2.27V32.1A6.81,6.81,0,0,0,0,38.51V62.37a42.87,42.87,0,0,0,3.08,16L9.23,93.72a2.26,2.26,0,0,0,2.1,1.42h6.8v11.33a2.27,2.27,0,0,0,4.53,0V95.15h9.06v11.33a2.27,2.27,0,1,0,4.53,0V95.15H43a2.26,2.26,0,0,0,2.1-1.42l6.15-15.36a42.86,42.86,0,0,0,3.08-16V38.51a6.81,6.81,0,0,0-4.53-6.41Zm0,30.27a38.36,38.36,0,0,1-2.75,14.3L41.51,90.62H12.86L7.28,76.68a38.37,38.37,0,0,1-2.75-14.3V45.31H9.22A15.89,15.89,0,0,0,24.92,58.9h4.53a15.89,15.89,0,0,0,15.7-13.59h4.69ZM20.39,27.18H18.12V18.12H36.25v9.06H34a2.26,2.26,0,0,0-2.26,2.27V49.84a4.53,4.53,0,1,1-9.06,0V29.45a2.26,2.26,0,0,0-2.27-2.27ZM49.84,40.78H43A2.26,2.26,0,0,0,40.78,43a11.32,11.32,0,0,1-4.94,9.34,9,9,0,0,0,.41-2.55V31.72h2.27a2.26,2.26,0,0,0,2.26-2.27V15.86a2.26,2.26,0,0,0-2.27-2.27H15.86a2.26,2.26,0,0,0-2.26,2.27V29.45a2.26,2.26,0,0,0,2.26,2.27h2.27V49.84a9,9,0,0,0,.41,2.55A11.32,11.32,0,0,1,13.59,43a2.26,2.26,0,0,0-2.27-2.26H4.53V38.51A2.27,2.27,0,0,1,6.8,36.25,2.26,2.26,0,0,0,9.06,34V4.53h2.26V6.8a2.27,2.27,0,0,0,4.53,0V4.53h4.53V6.8a2.27,2.27,0,0,0,4.53,0V4.53h4.53V6.8A2.27,2.27,0,0,0,34,6.8V4.53h4.53V6.8A2.27,2.27,0,0,0,43,6.8V4.53h2.26V34a2.26,2.26,0,0,0,2.27,2.27,2.27,2.27,0,0,1,2.26,2.26Zm0,0"/></g></g></svg>