<svg xmlns="http://www.w3.org/2000/svg" viewBox="0 0 28.75 51.91"><defs><style>.cls-1{fill:#262424;}</style></defs><title>roaming</title><g id="Camada_2" data-name="Camada 2"><g id="Camada_1-2" data-name="Camada 1"><path class="cls-1" d="M28.67,45.07,18.84,18.78a3.44,3.44,0,1,0-5.09.07l-10,26a1.29,1.29,0,1,0,2.41.92L8,41.07l7,3.68v5.86a1.29,1.29,0,0,0,2.58,0V44.75l6.81-3.65L26.25,46a1.29,1.29,0,0,0,2.42-.9ZM15,32.15l-3-1.62,3-7.81Zm2.58-9.28,2.86,7.66-2.86,1.53ZM9,38.69l-.09,0L11.11,33,15,35.08v6.76Zm14.42,0-5.83,3.12V35l3.78-2,2.13,5.7Z"/><path class="cls-1" d="M16.4,11.62l.19,0a1.29,1.29,0,1,0,.32-2.56l-.19,0A7.33,7.33,0,0,0,9,18.93,1.29,1.29,0,1,0,11.37,18a4.75,4.75,0,0,1,5-6.4Z"/><path class="cls-1" d="M19.25,6a1.29,1.29,0,0,0-1.12-1.44l-.34,0A12.18,12.18,0,0,0,4.89,20.9,1.29,1.29,0,1,0,7.3,20,9.6,9.6,0,0,1,17.47,7.06l.34,0A1.29,1.29,0,0,0,19.25,6Z"/><path class="cls-1" d="M5.6,7.93A13.91,13.91,0,0,1,18.36,2.69l.48.06A1.29,1.29,0,1,0,19.16.19L18.68.13A16.6,16.6,0,0,0,1.09,22.48a1.29,1.29,0,1,0,2.41-.91A13.91,13.91,0,0,1,5.6,7.93Z"/></g></g></svg>