<svg xmlns="http://www.w3.org/2000/svg" viewBox="0 0 54.73 59.93"><defs><style>.cls-1{fill:#262424;}</style></defs><title>servicos-phone</title><g id="Camada_2" data-name="Camada 2"><g id="Camada_1-2" data-name="Camada 1"><path class="cls-1" d="M6.73,21.62A6.74,6.74,0,0,0,0,28.36v8.55a6.73,6.73,0,0,0,13.47,0V28.36A6.74,6.74,0,0,0,6.73,21.62Zm4.11,15.28a4.11,4.11,0,0,1-8.23,0V28.36a4.11,4.11,0,0,1,8.23,0Z"/><path class="cls-1" d="M48,21.62a6.74,6.74,0,0,0-6.73,6.73v8.55a6.74,6.74,0,0,0,5.39,6.6,12,12,0,0,1-10.74,11,4.06,4.06,0,0,0-3.81-2.68H27.85a4.05,4.05,0,1,0,0,8.1h4.26A4.06,4.06,0,0,0,36,57.13,14.6,14.6,0,0,0,49.28,43.51a6.74,6.74,0,0,0,5.45-6.61V28.36A6.74,6.74,0,0,0,48,21.62ZM32.11,57.31H27.85a1.43,1.43,0,1,1,0-2.87h4.26a1.43,1.43,0,1,1,0,2.87Zm20-20.41a4.12,4.12,0,0,1-2.81,3.9V36.59a1.31,1.31,0,1,0-2.62,0V40.8a4.12,4.12,0,0,1-2.81-3.9V28.36a4.11,4.11,0,0,1,8.23,0Z"/><path class="cls-1" d="M46.7,20a1.31,1.31,0,1,0,2.6-.28A21.53,21.53,0,0,0,41.63,4.92,22.57,22.57,0,0,0,27.37,0,22.57,22.57,0,0,0,13.11,4.92,21.53,21.53,0,0,0,5.43,19.69a1.31,1.31,0,0,0,1.16,1.44h.14A1.31,1.31,0,0,0,8,20C9.33,8,18.68,2.62,27.37,2.62S45.4,8,46.7,20Z"/></g></g></svg>