<svg xmlns="http://www.w3.org/2000/svg" viewBox="0 0 55.66 26.41"><defs><style>.cls-1{fill:#262424;}</style></defs><title>servicos-codebar</title><g id="Camada_2" data-name="Camada 2"><g id="Camada_1-2" data-name="Camada 1"><rect class="cls-1" width="2.5" height="26.41" rx="0.88" ry="0.88"/><rect class="cls-1" x="4.21" width="4.16" height="26.41" rx="1.47" ry="1.47"/><rect class="cls-1" x="9.27" width="4.16" height="26.41" rx="1.47" ry="1.47"/><rect class="cls-1" x="14.85" width="1.63" height="26.41" rx="0.58" ry="0.58"/><rect class="cls-1" x="17.5" width="2.15" height="26.41" rx="0.76" ry="0.76"/><rect class="cls-1" x="22.62" width="2.15" height="26.41" rx="0.76" ry="0.76"/><rect class="cls-1" x="26.06" width="1.31" height="26.41" rx="0.46" ry="0.46"/><rect class="cls-1" x="28.26" width="2.73" height="26.41" rx="0.97" ry="0.97"/><rect class="cls-1" x="32.28" width="2.73" height="26.41" rx="0.97" ry="0.97"/><rect class="cls-1" x="36.01" width="2.5" height="26.41" rx="0.88" ry="0.88"/><rect class="cls-1" x="40.22" width="4.16" height="26.41" rx="1.47" ry="1.47"/><rect class="cls-1" x="45.28" width="4.16" height="26.41" rx="1.47" ry="1.47"/><rect class="cls-1" x="50.85" width="1.63" height="26.41" rx="0.58" ry="0.58"/><rect class="cls-1" x="53.51" width="2.15" height="26.41" rx="0.76" ry="0.76"/></g></g></svg>