<svg xmlns="http://www.w3.org/2000/svg" viewBox="0 0 70.22 59.18"><defs><style>.seta-direita-1{fill:#ea0000;}</style></defs><title>seta-direita</title><g id="Camada_2" data-name="Camada 2"><g id="Camada_1-2" data-name="Camada 1"><path class="seta-direita-1" d="M70.13,30.52c0-.11,0-.22.05-.33s0-.19,0-.29,0-.21,0-.31,0-.21,0-.31,0-.19,0-.29,0-.22-.05-.33-.05-.17-.07-.25-.07-.24-.11-.35v0c0-.07-.07-.14-.1-.21s-.1-.22-.16-.32-.11-.17-.17-.26-.12-.18-.18-.26-.16-.17-.24-.26l-.16-.18L42.26,1.16a4.23,4.23,0,1,0-5.83,6.13l19,18.07H4.23a4.23,4.23,0,0,0,0,8.45h51.2l-19,18.07A4.23,4.23,0,1,0,42.26,58L68.92,32.65l.16-.18c.08-.09.16-.17.24-.26s.12-.17.18-.26.12-.17.17-.26.11-.22.16-.32.07-.14.1-.21v0c0-.12.08-.23.11-.35S70.11,30.6,70.13,30.52Z"/></g></g></svg>