<svg xmlns="http://www.w3.org/2000/svg" viewBox="0 0 58.47 48.6"><defs><style>.cls-1{fill:#262424;}</style></defs><title>signal</title><g id="Camada_2" data-name="Camada 2"><g id="Camada_1-2" data-name="Camada 1"><path class="cls-1" d="M29.6,8.57a10.68,10.68,0,0,0-4,20.57V45.42a3.19,3.19,0,0,0,3.18,3.18h1.68a3.19,3.19,0,0,0,3.18-3.18V29.14a10.68,10.68,0,0,0-4-20.57Zm2.48,18.6a1.19,1.19,0,0,0-.83,1.13V45.42a.81.81,0,0,1-.81.81H28.75a.81.81,0,0,1-.81-.81V28.3a1.19,1.19,0,0,0-.83-1.13,8.3,8.3,0,1,1,5,0Z"/><path class="cls-1" d="M17.87,31.52a14.46,14.46,0,0,1-.74-22.89l.8-.66a1.19,1.19,0,1,0-1.51-1.83l-.8.66a16.84,16.84,0,0,0,.86,26.65,1.19,1.19,0,1,0,1.39-1.93Z"/><path class="cls-1" d="M11.38,37.39A21.68,21.68,0,0,1,10.27,3.07l1.17-1A1.19,1.19,0,0,0,9.93.27l-1.17,1A24.06,24.06,0,0,0,10,39.32a1.19,1.19,0,0,0,1.39-1.93Z"/><path class="cls-1" d="M49,19.21A16.72,16.72,0,0,0,42,6.09,1.19,1.19,0,1,0,40.59,8a14.46,14.46,0,0,1,.74,22.89l-.8.66A1.19,1.19,0,0,0,42,33.4l.8-.66A16.72,16.72,0,0,0,49,19.21Z"/><path class="cls-1" d="M58.46,19A23.89,23.89,0,0,0,48.48.22a1.19,1.19,0,0,0-1.39,1.93,21.68,21.68,0,0,1,1.1,34.32l-1.17,1a1.19,1.19,0,0,0,1.51,1.84l1.17-1A23.9,23.9,0,0,0,58.46,19Z"/></g></g></svg>